<svg width="25" height="25" viewBox="0 0 25 25" fill="none" xmlns="http://www.w3.org/2000/svg">
<path d="M15.1501 16.0337L20.1826 21.0675C20.2407 21.1256 20.3097 21.1717 20.3856 21.2032C20.4615 21.2346 20.5429 21.2508 20.6251 21.2508C20.7072 21.2508 20.7886 21.2346 20.8645 21.2032C20.9405 21.1717 21.0094 21.1256 21.0676 21.0675C21.1257 21.0094 21.1718 20.9404 21.2032 20.8645C21.2347 20.7886 21.2508 20.7072 21.2508 20.625C21.2508 20.5428 21.2347 20.4614 21.2032 20.3855C21.1718 20.3096 21.1257 20.2406 21.0676 20.1825L4.81756 3.9325C4.75945 3.87439 4.69046 3.82829 4.61454 3.79684C4.53861 3.76539 4.45724 3.74921 4.37506 3.74921C4.29288 3.74921 4.2115 3.76539 4.13558 3.79684C4.05965 3.82829 3.99067 3.87439 3.93256 3.9325C3.87445 3.99061 3.82835 4.05959 3.7969 4.13552C3.76545 4.21144 3.74927 4.29282 3.74927 4.375C3.74927 4.45718 3.76545 4.53855 3.7969 4.61448C3.82835 4.6904 3.87445 4.75939 3.93256 4.8175L7.97006 8.855C7.42066 9.24443 6.92622 9.70608 6.50006 10.2275C5.89681 10.9677 5.42458 11.8056 5.10381 12.705C5.07756 12.7812 5.04506 12.8862 5.04506 12.8862L5.02256 12.9637C5.02256 12.9637 4.92756 13.585 5.46631 13.7275C5.62643 13.7698 5.7968 13.7469 5.94 13.6637C6.0832 13.5805 6.18753 13.4438 6.23006 13.2837L6.23131 13.28L6.24131 13.2487L6.28506 13.1125C6.5575 12.3532 6.95693 11.6456 7.46631 11.02C7.8676 10.5286 8.34136 10.1012 8.87131 9.7525L10.8438 11.725C10.4458 11.9745 10.1091 12.3105 9.85882 12.708C9.60855 13.1056 9.45113 13.5545 9.39827 14.0212C9.34541 14.488 9.39846 14.9607 9.55349 15.4042C9.70852 15.8476 9.96153 16.2504 10.2937 16.5826C10.6259 16.9148 11.0287 17.1678 11.4721 17.3228C11.9156 17.4778 12.3883 17.5309 12.8551 17.478C13.3218 17.4252 13.7707 17.2678 14.1683 17.0175C14.5658 16.7672 14.9018 16.4305 15.1513 16.0325M14.2263 15.1075C14.1065 15.3901 13.9191 15.6389 13.6806 15.8321C13.4422 16.0254 13.1599 16.1571 12.8587 16.2158C12.5574 16.2745 12.2463 16.2584 11.9528 16.1688C11.6592 16.0792 11.3921 15.9189 11.175 15.7019C10.9578 15.485 10.7973 15.2181 10.7074 14.9246C10.6175 14.6312 10.601 14.3201 10.6594 14.0188C10.7177 13.7174 10.8492 13.4351 11.0422 13.1964C11.2352 12.9577 11.4839 12.7701 11.7663 12.65L14.2263 15.1075ZM10.4001 7.75L11.4676 8.8175C11.7926 8.7725 12.1367 8.75 12.5001 8.75C15.0551 8.75 16.6076 9.89 17.5351 11.0212C18.0444 11.6468 18.4439 12.3544 18.7163 13.1137C18.7371 13.1746 18.7517 13.22 18.7601 13.25L18.7701 13.2812V13.285L18.7713 13.2862C18.8176 13.4422 18.9228 13.5741 19.0647 13.6537C19.2066 13.7333 19.374 13.7544 19.5312 13.7126C19.6885 13.6707 19.8232 13.5692 19.9068 13.4296C19.9903 13.29 20.0162 13.1234 19.9788 12.965V12.9612L19.9776 12.9562L19.9726 12.94C19.9514 12.8609 19.9264 12.7829 19.8976 12.7062C19.5768 11.8069 19.1046 10.9689 18.5013 10.2287C17.3813 8.86125 15.4951 7.5 12.5026 7.5C11.7301 7.5 11.0313 7.59 10.4013 7.74875" fill="#AAAAAA"/>
</svg>
