<svg width="20" height="20" viewBox="0 0 20 20" fill="none" xmlns="http://www.w3.org/2000/svg">
<path d="M14.7256 13.3333C15.4277 12.3492 15.8332 11.1746 15.8332 9.99999C15.8332 6.66666 14.5832 5.83332 14.5832 5.83332C14.1344 7.08332 12.9165 7.49999 12.9165 7.49999C12.9165 2.91666 9.99984 1.66666 9.99984 1.66666C9.99984 1.66666 7.08317 2.91666 7.08317 7.49999C7.08317 7.49999 5.86522 7.08332 5.4165 5.83332C5.4165 5.83332 4.1665 6.66666 4.1665 9.99999C4.1665 11.1746 4.57197 12.3492 5.27405 13.3333" stroke="#CF0000" stroke-width="1.5" stroke-linecap="round" stroke-linejoin="round"/>
<path d="M15.8335 15.8333H4.16683C3.7066 15.8333 3.3335 16.2064 3.3335 16.6667V17.5C3.3335 17.9602 3.7066 18.3333 4.16683 18.3333H15.8335C16.2937 18.3333 16.6668 17.9602 16.6668 17.5V16.6667C16.6668 16.2064 16.2937 15.8333 15.8335 15.8333Z" stroke="#CF0000" stroke-width="1.5" stroke-linejoin="round"/>
<path d="M12.0832 13.3333C12.0832 11.25 9.99984 9.16666 9.99984 9.16666C9.99984 9.16666 7.9165 11.25 7.9165 13.3333" stroke="#CF0000" stroke-width="1.5" stroke-linecap="round" stroke-linejoin="round"/>
</svg>
