<svg width="20" height="20" viewBox="0 0 20 20" fill="none" xmlns="http://www.w3.org/2000/svg">
<path d="M14.9998 1.66666C16.8038 1.66666 18.3332 3.17902 18.3332 5.01381C18.3332 6.87783 16.7788 8.18592 15.3432 9.07541C15.2385 9.13524 15.1203 9.16666 14.9998 9.16666C14.8794 9.16666 14.7612 9.13524 14.6565 9.07541C13.2235 8.17724 11.6665 6.88428 11.6665 5.01381C11.6665 3.17902 13.1959 1.66666 14.9998 1.66666Z" stroke="#6385FF" stroke-width="1.5"/>
<path d="M15 5H15.0075" stroke="#6385FF" stroke-width="2" stroke-linecap="round" stroke-linejoin="round"/>
<path d="M4.1665 18.3333C5.54722 18.3333 6.6665 17.2141 6.6665 15.8333C6.6665 14.4526 5.54722 13.3333 4.1665 13.3333C2.78579 13.3333 1.6665 14.4526 1.6665 15.8333C1.6665 17.2141 2.78579 18.3333 4.1665 18.3333Z" stroke="#6385FF" stroke-width="1.5" stroke-linecap="round" stroke-linejoin="round"/>
<path d="M9.16667 5.83334H7.91667C6.30583 5.83334 5 6.95264 5 8.33334C5 9.71409 6.30583 10.8333 7.91667 10.8333H10.4167C12.0275 10.8333 13.3333 11.9526 13.3333 13.3333C13.3333 14.7141 12.0275 15.8333 10.4167 15.8333H9.16667" stroke="#6385FF" stroke-width="1.5" stroke-linecap="round" stroke-linejoin="round"/>
</svg>
