<svg width="59" height="50" viewBox="0 0 59 50" fill="none" xmlns="http://www.w3.org/2000/svg">
<path d="M54.755 29.183C55.1159 29.183 55.4452 29.4755 55.4286 29.8579C55.3314 32.0971 55.0592 33.5547 54.2965 34.7079C53.8577 35.3713 53.3126 35.9483 52.686 36.4128C50.9921 37.6683 48.6026 37.6683 43.8236 37.6683H37.994C33.2151 37.6683 30.8254 37.6683 29.1316 36.4128C28.5049 35.9483 27.96 35.3713 27.5212 34.7079C26.7584 33.5549 26.4862 32.0974 26.389 29.8587C26.3725 29.4758 26.7022 29.183 27.0635 29.183C29.0757 29.183 30.707 27.4562 30.707 25.326C30.707 23.1959 29.0757 21.4691 27.0635 21.4691C26.7022 21.4691 26.3725 21.1762 26.389 20.7933C26.4862 18.5546 26.7584 17.0972 27.5212 15.9441C27.96 15.2808 28.5049 14.7038 29.1316 14.2393C30.8254 12.9837 33.2151 12.9837 37.994 12.9837H43.8236C48.6026 12.9837 50.9921 12.9837 52.686 14.2393C53.3126 14.7038 53.8577 15.2808 54.2965 15.9441C55.0592 17.0973 55.3314 18.555 55.4286 20.7941C55.4452 21.1765 55.1159 21.4691 54.755 21.4691C52.7428 21.4691 51.1115 23.1959 51.1115 25.326C51.1115 27.4562 52.7428 29.183 54.755 29.183Z" stroke="white" stroke-width="3" stroke-linejoin="round"/>
<path d="M45.2651 13.3841V36.6164" stroke="white" stroke-width="3" stroke-linecap="round" stroke-linejoin="round" stroke-dasharray="5 5"/>
<path d="M33.3335 41.6666H4.1665L10.8844 22.4077C14.1573 13.0247 15.7938 8.33331 18.75 8.33331C21.5361 8.33331 23.1498 12.5 26.0659 20.8333" fill="white"/>
<path d="M33.3335 41.6666H4.1665L10.8844 22.4077C14.1573 13.0247 15.7938 8.33331 18.75 8.33331C21.5361 8.33331 23.1498 12.5 26.0659 20.8333" stroke="white" stroke-width="1.5" stroke-linejoin="round"/>
<path d="M11.7427 41.6667H45.0764L35.5067 26.3719C32.3275 21.2906 30.7379 18.75 28.4095 18.75C26.0812 18.75 24.4916 21.2906 21.3124 26.3719L18.2602 31.25" fill="white"/>
<path d="M11.7427 41.6667H45.0764L35.5067 26.3719C32.3275 21.2906 30.7379 18.75 28.4095 18.75C26.0812 18.75 24.4916 21.2906 21.3124 26.3719L18.2602 31.25" stroke="white" stroke-width="1.5" stroke-linecap="round" stroke-linejoin="round"/>
</svg>
